<svg width="33" height="33" viewBox="0 0 33 33" fill="none" xmlns="http://www.w3.org/2000/svg">
<path d="M27.7224 5.0404C24.67 1.98799 20.6166 0.303223 16.2957 0.303223C11.9748 0.303223 7.92141 1.98799 4.86901 5.0404C1.8166 8.0928 0.131836 12.1462 0.131836 16.4671C0.131836 20.7781 1.8166 24.8414 4.86901 27.8938C7.92141 30.9462 11.9748 32.6211 16.2957 32.6211C20.6166 32.6211 24.67 30.9462 27.7224 27.8938C30.7748 24.8414 32.4596 20.7781 32.4596 16.4671C32.4596 12.1462 30.7748 8.0928 27.7224 5.0404ZM1.92562 16.4671C1.92562 14.6634 2.25266 12.939 2.86711 11.3533H8.6746C8.41693 12.9786 8.27819 14.703 8.27819 16.4671C8.27819 18.1717 8.40702 19.8366 8.64487 21.4124H2.79773C2.23284 19.8664 1.92562 18.2014 1.92562 16.4671ZM10.0621 16.4671C10.0621 14.6931 10.2107 12.9687 10.4882 11.3533H15.4038V21.4124H10.4585C10.2008 19.8465 10.0621 18.1816 10.0621 16.4671ZM20.5175 6.05126C21.0131 7.10176 21.4194 8.2811 21.7365 9.55954H17.1876V2.25557C18.3967 2.70154 19.5761 4.02954 20.5175 6.05126ZM15.4038 2.25557V9.55954H10.8549C11.172 8.2811 11.5784 7.10176 12.0739 6.05126C13.0154 4.02954 14.1947 2.70154 15.4038 2.25557ZM15.4038 23.1963V30.6687C14.1947 30.2227 13.0154 28.9047 12.0739 26.8829C11.5585 25.7829 11.1423 24.5441 10.8153 23.1963H15.4038ZM17.1876 30.6687V23.1963H21.7762C21.4491 24.5441 21.0329 25.7829 20.5175 26.8829C19.5761 28.9047 18.3967 30.2227 17.1876 30.6687ZM17.1876 21.4124V11.3533H22.1032C22.3807 12.9687 22.5294 14.6931 22.5294 16.4671C22.5294 18.1816 22.3906 19.8465 22.1329 21.4124H17.1876ZM23.9168 11.3533H29.7243C30.3387 12.939 30.6658 14.6634 30.6658 16.4671C30.6658 18.2014 30.3586 19.8664 29.7937 21.4124H23.9465C24.1844 19.8366 24.3132 18.1717 24.3132 16.4671C24.3132 14.703 24.1745 12.9786 23.9168 11.3533ZM28.9017 9.55954H23.5699C23.2132 8.00361 22.7375 6.55669 22.1428 5.28816C21.687 4.30703 21.1716 3.45473 20.6166 2.75109C24.1745 3.88088 27.1377 6.34857 28.9017 9.55954ZM11.9748 2.75109C11.4198 3.45473 10.9044 4.30703 10.4486 5.28816C9.85395 6.55669 9.37825 8.00361 9.02147 9.55954H3.68967C5.45372 6.34857 8.41693 3.88088 11.9748 2.75109ZM3.60048 23.1963H8.98183C9.34851 24.8216 9.83412 26.3279 10.4486 27.6361C10.9044 28.6173 11.4198 29.4695 11.9748 30.1732C8.35747 29.0335 5.35462 26.4964 3.60048 23.1963ZM20.6166 30.1732C21.1716 29.4695 21.687 28.6173 22.1428 27.6361C22.7573 26.3279 23.2429 24.8216 23.6096 23.1963H28.9909C27.2368 26.4964 24.2339 29.0335 20.6166 30.1732Z" fill="white"/>
</svg>
