<svg
				xmlns="http://www.w3.org/2000/svg"
				width="108"
				height="92"
				viewBox="0 0 108 92"
				fill="none"
			>
				<path
					d="M60.2314 48.6941C61.255 48.8077 69.8988 50.0564 74.3345 49.4888C75.3581 49.3753 76.268 49.1482 77.0641 48.8077C79.9075 47.6724 81.7273 45.402 82.9783 43.3586C84.3432 46.5372 85.4805 50.397 86.2766 53.4621C85.3668 53.008 84.3432 52.3268 83.3195 51.6457C82.2959 50.9646 81.1586 50.2834 80.0212 49.7158C79.4526 50.0564 78.7701 50.397 78.0877 50.7375C77.0641 51.0781 76.0405 51.4187 74.9032 51.6457C72.7422 51.9863 69.8988 51.8728 67.1692 51.6457C62.3923 56.8677 61.0275 66.6306 60.6863 70.0363C60.5726 71.1715 60.9138 72.3067 61.4825 73.2149H69.3302C69.7851 72.5338 70.0126 71.8527 70.1263 71.058C70.9224 64.1331 73.1971 58.5706 74.562 57.7759C75.3581 57.8894 77.1779 59.0246 78.4289 59.8193C79.7938 60.7275 81.386 61.6357 83.0921 62.5438C83.4333 62.5438 83.6607 62.4303 84.0019 62.4303H98.6737C100.493 61.4086 101.745 59.8193 102.427 57.8894C103.564 54.8243 102.996 51.6457 102.313 49.3753C100.835 43.1315 96.854 33.5957 94.693 30.7576C92.6458 28.0331 88.4376 26.2167 84.4569 28.3737C84.0019 28.7142 83.547 28.9413 83.0921 29.5089C82.7509 29.963 79.68 34.5039 78.4289 37.2284L78.2015 37.6825C77.0641 40.2935 76.0405 42.3369 73.5383 42.6775C70.5812 43.018 63.7572 42.2234 61.3687 41.8828C59.4352 41.6558 57.7292 42.9045 57.5017 44.8344C56.9331 46.6507 58.2979 48.4671 60.2314 48.6941Z"
					fill="#99C6E6"
				/>
				<path
					d="M74.9996 34.6434C79.4789 32.8219 81.6307 27.721 79.8058 23.2501C77.9809 18.7792 72.8704 16.6315 68.3912 18.4529C63.9119 20.2744 61.7601 25.3753 63.585 29.8462C65.4099 34.3171 70.5204 36.4649 74.9996 34.6434Z"
					fill="#99C6E6"
				/>
				<path
					d="M107.886 67.7658C107.886 66.5171 106.863 65.3818 105.498 65.3818H83.547C82.1822 65.3818 81.1586 66.4035 81.1586 67.7658V76.28H56.9331C55.5683 76.28 54.5447 77.3017 54.5447 78.6639V88.9945C54.5447 90.3567 55.5683 91.3784 56.9331 91.3784H105.612C106.976 91.3784 108 90.3567 108 88.9945L107.886 67.7658Z"
					fill="#99C6E6"
				/>
				<path
					d="M49.1991 41.3151C44.3085 39.6123 38.1669 36.8877 36.802 35.639C36.0059 34.8443 34.5273 33.3686 33.1625 31.6657C33.7312 29.7358 34.0724 28.1465 34.2999 27.4654C34.9823 23.2651 27.0208 18.3836 21.6753 21.9028C18.377 24.0597 11.3254 39.0447 11.3254 51.078C11.3254 56.073 10.643 65.1548 10.0744 66.7441C8.93702 69.2416 3.36401 79.7991 0.520645 85.0211C-0.616703 87.0646 0.179441 89.7891 2.22667 90.9243C2.90908 91.2649 3.59148 91.4919 4.27389 91.4919C5.86618 91.4919 7.34473 90.6973 8.14087 89.2215C8.48208 88.5403 16.3298 73.7824 17.9221 70.6038C18.9457 68.4469 19.6281 63.1114 19.9693 57.7758C21.789 60.7274 24.1775 64.7007 25.4286 67.0846C25.656 69.5821 24.5187 78.8909 23.2676 86.3834C22.8127 88.7674 24.5187 91.0378 26.9071 91.3784C29.2955 91.8325 31.5702 90.1296 31.9114 87.7457C35.4372 66.8576 34.0724 64.4736 33.39 63.2249C31.9114 60.5004 28.6131 55.0513 26.6796 51.7591C27.5895 48.9211 29.0681 44.3802 30.4329 39.9528C31.0016 40.5204 31.4565 40.9745 31.5702 41.0881C34.8685 44.0396 44.6497 47.6723 46.5832 48.3535C47.0382 48.467 47.3794 48.5805 47.8343 48.5805C49.4266 48.5805 50.7914 47.6723 51.3601 46.083C52.1562 44.1532 51.1326 41.9962 49.1991 41.3151Z"
					fill="#99C6E6"
				/>
				<path
					d="M43.4069 13.1641C44.6094 8.29428 41.6291 3.37355 36.7502 2.17329C31.8713 0.973023 26.9414 3.94774 25.7389 8.81751C24.5364 13.6873 27.5166 18.608 32.3955 19.8083C37.2744 21.0085 42.2044 18.0338 43.4069 13.1641Z"
					fill="#99C6E6"
				/>
			</svg>