			<svg
				xmlns="http://www.w3.org/2000/svg"
				width="83"
				height="89"
				viewBox="0 0 83 89"
				fill="none"
			>
				<path
					d="M56.1239 0.465379C53.4636 -0.194852 50.6767 -0.151919 48.0381 0.589942C45.3995 1.3318 43.0005 2.74696 41.0777 4.69577C39.1548 2.74702 36.7558 1.33191 34.1172 0.590052C31.4787 -0.151805 28.6918 -0.194776 26.0315 0.465379C13.6926 3.4692 9.9608 19.2204 19.3196 27.8266L40.3449 47.16C40.5445 47.3435 40.806 47.4453 41.0775 47.4453C41.3489 47.4453 41.6104 47.3435 41.81 47.16L62.8353 27.8266C72.1886 19.2259 68.4661 3.46996 56.1239 0.465379ZM29.8329 6.47713C27.8588 6.44132 25.9274 7.05156 24.3341 8.21448C22.7408 9.3774 21.5735 11.0289 21.0107 12.9163C20.9243 13.1869 20.7344 13.4125 20.4823 13.5442C20.2301 13.6759 19.9361 13.7032 19.6639 13.62C19.3918 13.5368 19.1635 13.3499 19.0287 13.0999C18.8938 12.8499 18.8633 12.5569 18.9437 12.2846C19.6365 9.95261 21.0764 7.91129 23.043 6.47304C25.0096 5.03478 27.3946 4.27884 29.8329 4.32091C30.1196 4.32091 30.3945 4.4345 30.5972 4.63668C30.8 4.83887 30.9139 5.11309 30.9139 5.39902C30.9139 5.68495 30.8 5.95917 30.5972 6.16136C30.3945 6.36354 30.1196 6.47713 29.8329 6.47713ZM73.5074 73.3199V79.7885C73.5074 80.0744 73.3935 80.3487 73.1908 80.5508C72.9881 80.753 72.7131 80.8666 72.4264 80.8666H44.3206C44.0339 80.8666 43.759 80.753 43.5563 80.5508C43.3535 80.3487 43.2397 80.0744 43.2397 79.7885V73.3199C43.2397 73.0339 43.3535 72.7597 43.5563 72.5575C43.759 72.3553 44.0339 72.2417 44.3206 72.2417H72.4264C72.7131 72.2417 72.9881 72.3553 73.1908 72.5575C73.3935 72.7597 73.5074 73.0339 73.5074 73.3199ZM46.4826 83.0228H70.2644V87.3353C70.2636 87.6209 70.1495 87.8947 69.9469 88.0967C69.7444 88.2987 69.4699 88.4125 69.1834 88.4134H47.5636C47.2772 88.4125 47.0027 88.2987 46.8002 88.0967C46.5976 87.8947 46.4835 87.6209 46.4826 87.3353V83.0228ZM82.1553 24.805V50.6041C82.1564 51.4536 81.9888 52.2948 81.6622 53.0794C81.3357 53.8639 80.8567 54.5763 80.2528 55.1753L70.4482 64.9537C69.6379 65.7634 69.183 66.8608 69.1834 68.0048V70.0855H47.5636V65.1586C47.5639 63.8434 47.8323 62.5421 48.3527 61.3337C48.873 60.1253 49.6343 59.0351 50.5904 58.1293L66.535 43.025C67.127 42.4635 67.9167 42.1567 68.7336 42.171C69.5505 42.1852 70.3289 42.5193 70.9009 43.1011C71.4729 43.6829 71.7925 44.4657 71.7908 45.2805C71.789 46.0953 71.4659 46.8767 70.8914 47.456L70.8806 47.4668L61.93 56.3828C61.7278 56.5861 61.6146 56.861 61.6152 57.1473C61.6158 57.4336 61.7301 57.7081 61.9331 57.9106C62.1361 58.113 62.4113 58.227 62.6984 58.2276C62.9855 58.2282 63.2612 58.1153 63.465 57.9137L72.3507 49.0408C73.5723 47.8226 75.6694 46.0868 75.6694 42.6045V24.805C75.6694 23.9472 76.0111 23.1245 76.6192 22.518C77.2274 21.9114 78.0523 21.5706 78.9124 21.5706C79.7725 21.5706 80.5973 21.9114 81.2055 22.518C81.8137 23.1245 82.1553 23.9472 82.1553 24.805ZM68.1024 40.0602V32.8908C68.1024 32.176 68.3872 31.4904 68.894 30.9849C69.4008 30.4795 70.0882 30.1955 70.8049 30.1955C71.5217 30.1955 72.2091 30.4795 72.7159 30.9849C73.2227 31.4904 73.5074 32.176 73.5074 32.8908V42.68C73.5074 42.8309 73.4966 42.9711 73.4858 43.122C73.032 42.1067 72.2652 41.2623 71.297 40.7116C70.3288 40.1609 69.2097 39.9327 68.1024 40.0602ZM38.9157 73.3199V79.7885C38.9157 80.0744 38.8018 80.3487 38.5991 80.5508C38.3963 80.753 38.1214 80.8666 37.8347 80.8666H9.72893C9.44223 80.8666 9.16727 80.753 8.96455 80.5508C8.76182 80.3487 8.64793 80.0744 8.64793 79.7885V73.3199C8.64793 73.0339 8.76182 72.7597 8.96455 72.5575C9.16727 72.3553 9.44223 72.2417 9.72893 72.2417H37.8347C38.1214 72.2417 38.3963 72.3553 38.5991 72.5575C38.8018 72.7597 38.9157 73.0339 38.9157 73.3199ZM11.8909 83.0228H35.6727V87.3353C35.6719 87.6209 35.5577 87.8947 35.3552 88.0967C35.1526 88.2987 34.8782 88.4125 34.5917 88.4134H12.9719C12.6855 88.4125 12.411 88.2987 12.2084 88.0967C12.0059 87.8947 11.8917 87.6209 11.8909 87.3353V83.0228ZM11.7071 64.9537L1.90255 55.1753C1.29866 54.5763 0.819637 53.8639 0.493102 53.0794C0.166568 52.2948 -0.0010185 51.4536 4.65683e-06 50.6041V24.805C4.65683e-06 23.9472 0.341674 23.1245 0.94985 22.518C1.55803 21.9114 2.38289 21.5706 3.24298 21.5706C4.10307 21.5706 4.92793 21.9114 5.53611 22.518C6.14428 23.1245 6.48595 23.9472 6.48595 24.805V42.6045C6.48595 46.0868 8.58307 47.8226 9.80459 49.0408L18.6903 57.9137C18.8942 58.1153 19.1698 58.2282 19.4569 58.2276C19.744 58.227 20.0192 58.113 20.2222 57.9106C20.4252 57.7081 20.5395 57.4336 20.5401 57.1473C20.5407 56.861 20.4275 56.5861 20.2253 56.3828L11.2747 47.4668L11.2639 47.456C10.6894 46.8767 10.3664 46.0953 10.3646 45.2805C10.3628 44.4657 10.6824 43.6829 11.2544 43.1011C11.8264 42.5193 12.6049 42.1852 13.4217 42.171C14.2386 42.1567 15.0283 42.4635 15.6203 43.025L31.5649 58.1293C32.521 59.0351 33.2823 60.1253 33.8027 61.3337C34.323 62.5421 34.5915 63.8434 34.5917 65.1586V70.0855H12.9719V68.0048C12.9723 66.8608 12.5174 65.7634 11.7071 64.9537ZM8.66955 43.122C8.65874 42.9711 8.64793 42.8309 8.64793 42.68V32.8908C8.64793 32.176 8.93266 31.4904 9.43947 30.9849C9.94628 30.4795 10.6337 30.1955 11.3504 30.1955C12.0672 30.1955 12.7545 30.4795 13.2614 30.9849C13.7682 31.4904 14.0529 32.176 14.0529 32.8908V40.0602C12.9457 39.9327 11.8265 40.1609 10.8583 40.7116C9.8901 41.2623 9.12333 42.1067 8.66955 43.122Z"
					fill="#99C6E6"
				/>
			</svg>