<svg
				xmlns="http://www.w3.org/2000/svg"
				width="87"
				height="88"
				viewBox="0 0 87 88"
				fill="none"
			>
				<path
					d="M77.9661 26.3315L78.5189 21.2453C78.5382 21.0746 78.6078 20.9194 78.7353 20.7991L86.9885 12.5161L74.5174 0L66.2643 8.28298C66.1251 8.42264 65.9473 8.50024 65.7501 8.50024L62.4334 8.55067C58.8692 8.60887 55.5177 10.0288 53.0128 12.5544L44.5624 21.0469L44.9876 21.4737C46.5223 23.0139 46.5223 25.5163 44.9876 27.0449C44.3343 27.7006 43.5032 28.0769 42.6527 28.1777L43.5148 29.0429L51.1958 21.3341C51.4819 21.047 51.9573 21.047 52.2434 21.3341C52.5295 21.6211 52.5295 22.0983 52.2434 22.3854L44.5623 30.0943L48.0144 33.5588L55.6839 25.8616C55.97 25.5745 56.4454 25.5745 56.7315 25.8616C57.0176 26.1487 57.0176 26.6259 56.7315 26.913L49.0504 34.6218C49.2476 34.8197 49.4177 35.0408 49.5646 35.2775C49.8004 35.4249 50.0284 35.6033 50.2295 35.8129L52.5064 38.098L53.0901 37.5122C53.2872 36.9962 53.5733 36.5074 53.9792 36.0999C54.3735 35.7042 54.849 35.4249 55.3553 35.2348L60.114 30.459C60.4 30.1719 60.8755 30.1719 61.1616 30.459C61.4476 30.746 61.4476 31.2232 61.1616 31.5103L57.6091 35.0757C58.3204 35.2231 59.0046 35.5606 59.538 36.0999L61.5288 38.0978L66.1289 33.4811C66.415 33.194 66.8905 33.194 67.1765 33.4811C67.4626 33.7682 67.4626 34.2454 67.1765 34.5325L62.5764 39.1492L66.0285 42.6138L74.0652 34.548C76.2531 32.3522 77.6371 29.4424 77.9657 26.3542L77.9661 26.3315Z"
					fill="#99C6E6"
				/>
				<path
					d="M33.9908 74.7383L42.4412 66.2458L42.0159 65.819C40.4812 64.2788 40.4812 61.7764 42.0159 60.2478C42.6692 59.5922 43.5003 59.2158 44.3508 59.115L43.4888 58.2498L35.8077 65.9587C35.6608 66.1061 35.4714 66.1759 35.282 66.1759C35.0926 66.1759 34.907 66.1061 34.7563 65.9587C34.4702 65.6716 34.4702 65.1944 34.7563 64.9073L42.4373 57.1985L38.9853 53.7339L31.3158 61.4311C31.1689 61.5786 30.9795 61.6484 30.79 61.6484C30.6006 61.6484 30.4151 61.5786 30.2643 61.4311C29.9782 61.144 29.9782 60.6668 30.2643 60.3797L37.9454 52.6709C37.7482 52.4731 37.5781 52.2519 37.4312 52.0153C37.1954 51.8678 36.9674 51.6894 36.7663 51.4799L34.4894 49.1947L33.9057 49.7806C33.7086 50.2966 33.4225 50.7854 33.0166 51.1928C32.6107 51.6001 32.1468 51.8678 31.6405 52.0579L26.8818 56.8338C26.7349 56.9812 26.5455 57.051 26.3561 57.051C26.1667 57.051 25.9811 56.9812 25.8304 56.8338C25.5443 56.5467 25.5443 56.0695 25.8304 55.7824L29.3829 52.217C28.6716 52.0696 27.9873 51.7321 27.4539 51.1929L25.4631 49.1949L20.863 53.8116C20.7161 53.959 20.5267 54.0289 20.3373 54.0289C20.1479 54.0289 19.9623 53.959 19.8116 53.8116C19.5255 53.5245 19.5255 53.0473 19.8116 52.7602L24.4117 48.1435L20.9596 44.679L12.9229 52.7447C10.7349 54.9406 9.35097 57.8503 9.02242 60.9385L8.46963 66.0247C8.4503 66.1954 8.38072 66.3506 8.25316 66.4709L0 74.7539L12.4711 87.27L20.7242 78.987C20.8634 78.8474 21.0412 78.7698 21.2384 78.7698L24.5551 78.7193C28.1193 78.6611 31.4708 77.2412 33.9757 74.7156L33.9908 74.7383Z"
					fill="#99C6E6"
				/>
				<path
					d="M58.4906 37.1283C57.5589 36.1933 55.9585 36.2049 55.0385 37.1283C54.5746 37.5938 54.3272 38.2107 54.3272 38.8664C54.3272 39.5221 54.5862 40.1272 55.0385 40.5928L65.754 51.347C66.0401 51.6341 66.0401 52.1113 65.754 52.3984C65.6071 52.5459 65.4177 52.6157 65.2283 52.6157C65.0388 52.6157 64.8533 52.5459 64.7025 52.3984L50.1642 37.8075C50.0753 38.6727 49.708 39.5068 49.0547 40.1625C48.4014 40.8181 47.6012 41.1945 46.7275 41.2953L61.255 55.8753C61.5411 56.1624 61.5411 56.6396 61.255 56.9267C61.1081 57.0741 60.9187 57.1439 60.7293 57.1439C60.5399 57.1439 60.3543 57.0741 60.2036 56.9267L50.725 47.4138C50.6361 48.279 50.2688 49.1131 49.6155 49.7688C48.9622 50.4244 48.1195 50.7813 47.2691 50.8822L56.6819 60.3291C56.968 60.6162 56.968 61.0934 56.6819 61.3805C56.535 61.5279 56.3456 61.5978 56.1562 61.5978C55.9668 61.5978 55.7812 61.5279 55.6305 61.3805L43.9828 49.6798L43.4686 49.1638C43.3681 50.0483 42.9854 50.863 42.3399 51.5071C41.6982 52.1511 40.8439 52.5197 39.9934 52.6206L53.6698 66.3464C53.9559 66.6335 53.9559 67.1107 53.6698 67.3978C53.5229 67.5452 53.3335 67.6151 53.1441 67.6151C52.9547 67.6151 52.7691 67.5452 52.6184 67.3978L46.5531 61.3107C46.0777 60.8335 45.4553 60.5968 44.8213 60.5968C44.1874 60.5968 43.565 60.8335 43.0895 61.3107C42.1385 62.2651 42.1385 63.8246 43.0895 64.7752L52.5991 74.3191C54.787 76.515 57.6863 77.9039 60.7634 78.2337L65.8313 78.7885C66.0014 78.8079 66.156 78.8777 66.2758 79.0057L74.529 87.2887L87 74.7726L78.7469 66.4896C78.6077 66.3499 78.5304 66.1714 78.5304 65.9736L78.4802 62.6448C78.4222 59.0678 77.0073 55.7041 74.4908 53.1902L58.4987 37.1403L58.4906 37.1283Z"
					fill="#99C6E6"
				/>
				<path
					d="M28.5091 50.157C29.4407 51.0804 31.0411 51.0804 31.9611 50.157C32.425 49.6915 32.6724 49.0747 32.6724 48.419C32.6724 47.7633 32.4134 47.1581 31.9611 46.6925L21.2456 35.9383C20.9596 35.6512 20.9596 35.174 21.2456 34.8869C21.5317 34.5998 22.0072 34.5998 22.2932 34.8869L37.7905 50.4402C38.7415 51.3946 40.2954 51.3946 41.2426 50.4402C41.7065 49.9746 41.9539 49.3578 41.9539 48.7021C41.9539 48.0464 41.6949 47.4297 41.2426 46.9757L25.7334 31.4104C25.4474 31.1234 25.4474 30.6462 25.7334 30.3591C26.0195 30.072 26.4949 30.072 26.781 30.3591L45.0502 48.6943C46.0012 49.6487 47.5551 49.6487 48.5023 48.6943C49.4532 47.7399 49.4532 46.1803 48.5023 45.2297L30.2915 26.9531C30.0054 26.666 30.0054 26.1888 30.2915 25.9017C30.5775 25.6146 31.053 25.6146 31.3391 25.9017L44.4821 39.0923C45.4021 40.0156 47.0141 40.0272 47.9341 39.0923C48.8542 38.1573 48.8851 36.5783 47.9341 35.6277L39.3523 27.0265L33.2871 20.9394C33.0011 20.6523 33.0011 20.1751 33.2871 19.888C33.5732 19.6009 34.0486 19.6009 34.3347 19.888L40.3999 25.9751C41.3509 26.9295 42.9048 26.9295 43.852 25.9751C44.803 25.0207 44.803 23.4612 43.852 22.5106L34.3424 12.9667C32.1545 10.7708 29.2552 9.38186 26.1781 9.05213L21.1102 8.49734C20.9402 8.47794 20.7855 8.40811 20.6657 8.28008L12.486 0.000976562L0.0148926 12.5171L8.26805 20.8001C8.40721 20.9398 8.48453 21.1182 8.48453 21.3161L8.53478 24.6449C8.59276 28.2219 10.0076 31.5855 12.5241 34.0995L28.5162 50.1494L28.5091 50.157Z"
					fill="#99C6E6"
				/>
			</svg>