			<svg
				xmlns="http://www.w3.org/2000/svg"
				width="103"
				height="83"
				viewBox="0 0 103 83"
				fill="none"
			>
				<path
					d="M81.0754 33.0311L65.9447 50.2535C62.0546 54.6878 57.0302 57.9093 51.3947 59.6155C52.4048 60.2286 53.4814 60.7307 54.6291 61.0951L61.8864 63.3567L72.2628 82.9917H102.072L82.5198 51.3029L83.4502 43.7849C83.7559 41.3278 83.428 38.8351 82.4976 36.538L81.0798 33.0234L81.0754 33.0311Z"
					fill="#99C6E6"
				/>
				<path
					d="M0 82.8533L30.2524 82.9999L46.2202 59.3394L50.3363 58.1797C55.8834 56.6113 60.8634 53.4699 64.6742 49.1378L81.0538 30.4935C82.3253 26.6501 81.5633 23.7931 77.6864 22.4512C77.6864 18.1857 75.5774 16.1951 71.6652 16.1951C71.5057 12.7827 70.5443 9.77912 64.6116 9.32583C64.4432 4.6382 62.2413 2.18115 57.784 2.18115H57.6157L56.096 3.38528C55.9941 3.55412 55.8701 3.71408 55.7106 3.85182L49.1533 9.05041L51.1382 11.4498C52.906 13.5781 52.6136 16.7372 50.4913 18.5145C49.5609 19.301 48.4267 19.6742 47.2925 19.6742C47.2481 19.6742 47.1906 19.6608 47.1462 19.6608C48.9141 21.7891 48.6217 24.9482 46.4994 26.7255C45.5911 27.4898 44.4701 27.8852 43.3137 27.8852C43.1543 27.8852 43.008 27.8852 42.8485 27.863C42.2814 27.8052 41.7497 27.6453 41.2358 27.4187C41.2358 27.5653 41.249 27.703 41.2358 27.8497C41.1117 29.1827 40.487 30.3868 39.4547 31.2488C38.5242 32.0352 37.39 32.4084 36.2558 32.4084C35.2677 32.4084 34.293 32.1018 33.4556 31.5331C33.3315 32.8083 32.7422 34.0257 31.6877 34.91C30.7573 35.6965 29.6231 36.0697 28.4888 36.0697C27.0578 36.0697 25.6311 35.4565 24.6431 34.2746L22.6449 31.8619L24.4615 45.7288L0 82.8533Z"
					fill="#99C6E6"
				/>
				<path
					d="M19.9286 25.9002L25.9631 33.156C27.1327 34.5556 29.2063 34.7466 30.6153 33.5781C32.0198 32.4051 32.2014 30.3256 31.0362 28.9126L30.8988 28.7527L25.0017 21.6568C24.3548 20.8703 23.4156 20.4749 22.4718 20.4749C21.723 20.4749 20.9743 20.7237 20.3628 21.2391C18.9671 22.4121 18.7767 24.4916 19.9419 25.9045L19.9286 25.9002Z"
					fill="#99C6E6"
				/>
				<path
					d="M33.721 29.5082C34.8906 30.9078 36.9642 31.0988 38.3732 29.9303C39.0555 29.3615 39.4631 28.5662 39.5428 27.6908C39.6226 26.8155 39.3611 25.9491 38.794 25.2693L30.7967 15.6452C30.2296 14.961 29.4366 14.5522 28.5636 14.4633C28.4617 14.4633 28.3598 14.45 28.2579 14.45C27.487 14.45 26.7515 14.7121 26.1489 15.2142C25.4666 15.7829 25.059 16.5783 24.9703 17.4536C24.8906 18.329 25.152 19.1953 25.7191 19.8752L33.7164 29.4992L33.721 29.5082Z"
					fill="#99C6E6"
				/>
				<path
					d="M31.44 13.7655L40.7621 24.9936C41.3292 25.6778 42.1223 26.0866 42.9952 26.1755C43.8813 26.2555 44.7319 25.9934 45.4099 25.4246C46.8055 24.2517 46.996 22.1721 45.8308 20.7592L43.1414 17.5156L37.1733 10.3397L36.5043 9.54438C35.8575 8.75792 34.9182 8.34912 33.9656 8.34912C33.2168 8.34912 32.468 8.59794 31.8566 9.11337C30.4609 10.2863 30.2704 12.3659 31.4357 13.7788L31.44 13.7655Z"
					fill="#99C6E6"
				/>
				<path
					d="M38.4848 9.23752L44.7453 16.7777C45.3124 17.462 46.1054 17.8707 46.9784 17.9596C47.8512 18.0396 48.7151 17.7775 49.393 17.2087C50.7887 16.0358 50.9792 13.9562 49.8139 12.5433L47.1733 9.35745C46.6416 9.21972 45.0289 8.86869 42.1046 8.86869C41.7546 8.86869 41.3913 8.86869 41.0058 8.88202H40.5539C39.588 8.88202 38.7728 8.77983 38.0905 8.59766C38.2056 8.81538 38.3297 9.02865 38.4981 9.22415L38.4848 9.23752Z"
					fill="#99C6E6"
				/>
				<path
					d="M37.2042 4.98099C37.2042 4.98099 36.1276 7.18928 40.5493 7.18928H40.9569C41.3557 7.17595 41.7412 7.17595 42.1133 7.17595C46.185 7.17595 47.9662 7.82466 47.9662 7.82466L54.6475 2.52382L48.4536 0.284368C47.9219 0.0888592 47.3769 0 46.8187 0C45.9547 0 45.0952 0.226607 44.3464 0.693152L37.213 5.00314L37.2042 4.98099Z"
					fill="#99C6E6"
				/>
			</svg>