<svg width="83" height="79" viewBox="0 0 83 79" fill="none" xmlns="http://www.w3.org/2000/svg">
<rect width="83" height="78.7216" rx="8.5567" fill="#99C6E6"/>
<path d="M40.7759 47.4587L36.5209 43.1861C36.0249 42.7163 35.2513 42.7163 34.7553 43.1861L15.9635 62.0553C15.4768 62.5471 15.4768 63.3396 15.9635 63.8282C16.4501 64.3168 17.2425 64.3168 17.7291 63.8282L35.6385 45.8451L39.0107 49.2312C39.4974 49.7199 40.2898 49.7199 40.7763 49.2312C41.2629 48.7426 41.2626 47.9472 40.7759 47.4587Z" fill="#DAEDFA"/>
<path d="M64.1284 34.9412L51.3636 47.7585C50.877 48.2472 50.877 49.0428 51.3636 49.5314C51.8503 50.02 52.6427 50.0201 53.1293 49.5314L65.8941 36.7141C66.3807 36.2223 66.3807 35.4298 65.8941 34.9412C65.4043 34.4525 64.615 34.4525 64.1284 34.9412Z" fill="#DAEDFA"/>
<path d="M15.9722 69.4315C15.9722 72.2004 13.7386 74.4432 10.981 74.4432C8.22335 74.4432 5.98975 72.2004 5.98975 69.4315C5.98975 66.6625 8.22335 64.4197 10.981 64.4197C13.7386 64.4197 15.9722 66.6625 15.9722 69.4315Z" fill="#DAEDFA"/>
<path d="M75.867 29.3375C75.867 32.1064 73.6334 34.3492 70.8758 34.3492C68.1181 34.3492 65.8845 32.1064 65.8845 29.3375C65.8845 26.5685 68.1181 24.3257 70.8758 24.3257C73.6334 24.3257 75.867 26.5685 75.867 29.3375Z" fill="#DAEDFA"/>
<path d="M50.9108 54.6724C50.9108 57.4414 48.6772 59.6842 45.9196 59.6842C43.1619 59.6842 40.9283 57.4414 40.9283 54.6724C40.9283 51.9034 43.1619 49.6606 45.9196 49.6606C48.6772 49.6606 50.9108 51.9034 50.9108 54.6724Z" fill="#DAEDFA"/>
<path d="M62.1406 25.5782C62.83 25.575 63.3853 25.0175 63.3884 24.3252V16.1813H74.6183C75.0519 16.1844 75.4544 15.9589 75.6821 15.5861C75.9098 15.2165 75.9285 14.7529 75.7289 14.3645L74.0194 10.9189L75.7289 7.4733C75.9285 7.08488 75.9098 6.6213 75.6821 6.25171C75.4543 5.87896 75.0519 5.65343 74.6183 5.65656H63.3884V5.53127C63.3884 4.83901 62.83 4.27832 62.1406 4.27832C61.4512 4.27832 60.8928 4.83901 60.8928 5.53127V24.3258C60.8959 25.0181 61.4512 25.575 62.1406 25.5782Z" fill="#DAEDFA"/>
</svg>
